PathFileType	4	(X/Y/Z)	Patient3_L_KneeIso_Processed.trc
DataRate	CameraRate	NumFrames	NumMarkers	Units	OrigDataRate	OrigDataStartFrame	OrigNumFrames
100.000000000000	100.000000000000	4	33	mm	100.000000000000	113	       301
Frame#	Time	L.Toe			R.Toe			L.Midfoot.Superior			Neck			R.Midfoot.Superior			R.Shoulder			L.Shank.Lateral			R.Wrist			L.Shoulder			R.Midfoot.Lateral			L.Heel			R.Heel			R.Patella			L.Wrist			R.Shank.Inferior			R.Shank.Lateral			L.Elbow			L.Asis			L.Shank.Inferior			L.Patella			L.Thigh.Lateral			L.Thigh.Superior			R.Elbow			R.Shank.Superior			L.Thigh.Inferior			R.Thigh.Superior			L.Midfoot.Lateral			R.Thigh.Lateral			L.Shank.Superior			R.Thigh.Inferior			Sacral			R.Asis			Sternum			
		X1	Y1	Z1	X2	Y2	Z2	X3	Y3	Z3	X4	Y4	Z4	X5	Y5	Z5	X6	Y6	Z6	X7	Y7	Z7	X8	Y8	Z8	X9	Y9	Z9	X10	Y10	Z10	X11	Y11	Z11	X12	Y12	Z12	X13	Y13	Z13	X14	Y14	Z14	X15	Y15	Z15	X16	Y16	Z16	X17	Y17	Z17	X18	Y18	Z18	X19	Y19	Z19	X20	Y20	Z20	X21	Y21	Z21	X22	Y22	Z22	X23	Y23	Z23	X24	Y24	Z24	X25	Y25	Z25	X26	Y26	Z26	X27	Y27	Z27	X28	Y28	Z28	X29	Y29	Z29	X30	Y30	Z30	X31	Y31	Z31	X32	Y32	Z32	X33	Y33	Z33	

113	2.120000000000	166.481099618964	375.013081337437	348.471361956167	690.057420583279	42.202872156707	589.152244902659	224.572498698871	489.571095615609	364.693285428843	473.373853040311	1484.958587895148	647.593506785808	565.136796010923	91.647619214161	590.561874059590	496.360155143308	1436.653847956313	794.448253241747	478.881469040966	582.861405585221	331.663881482155	579.719317857682	1165.924197435464	1115.835590892356	522.030222419182	1473.015332960692	509.034013077351	478.409225690084	30.476726666375	638.457106885517	177.345849828386	663.981642467832	401.586332931712	391.163414599742	37.129993038575	580.220341114003	599.615303949915	492.980362368050	653.997575959302	672.352297502475	1313.080981895622	503.847463570278	531.459767989888	214.953620405855	624.997910424737	483.378943051286	341.710356922972	709.438943223864	552.134010146587	1184.057776308088	324.101490086368	589.082685126264	986.335591409763	456.829789110359	371.861682263578	514.941518584450	379.248968819350	675.547901840601	492.424998854391	415.766668853570	593.841377722330	699.576465010825	362.647617774157	665.595714181656	775.619147091292	438.274554134281	396.453295312387	1130.668005232594	940.790413561704	566.596696809774	385.293717932308	658.592575967642	690.757904428460	648.312302303631	425.818667457518	627.064343779065	711.449505780836	698.793566564170	168.789942958243	589.096581148009	333.891441134342	536.337627236339	656.484169221258	745.070168263012	531.559377790009	482.791816176653	380.680223608046	613.483922509538	599.377036058110	673.427707824129	419.728223326766	1008.310750874082	595.598450729316	590.813250751126	970.342234681945	720.510524792211	608.219261407009	1389.094215600218	650.199739385188	
114	2.130000000000	166.576930081723	371.534578693074	347.965044186868	690.046469737948	42.345856028543	589.196341026225	223.830385669511	486.514209370708	364.327299887076	473.672550015391	1484.956143936033	647.719132481622	565.111256438093	91.751925567752	590.641453417835	496.581658409285	1436.632176102094	794.507341197750	477.477502955564	581.642033358414	331.443265895952	579.892339390029	1165.951194387261	1115.997257634835	522.347307533558	1473.020423294881	509.150122692470	478.409105981510	30.462487990483	638.457301647063	175.341370279911	660.527121391442	401.309914805116	391.155444729239	37.128060811328	580.238705960161	599.771836924819	492.954823142896	654.252576421454	672.655109492083	1313.069993075858	503.991687913858	531.414794283376	214.964603750659	625.219674876894	483.344344742681	341.754633423293	709.616612046079	552.455708409924	1184.060916347436	324.220875820990	589.187067681765	986.257954361252	456.848697801629	370.922019318612	512.902617396955	378.916093617508	674.719441935967	492.168303687593	415.468679264951	593.127541956320	699.343039031115	362.633796639455	665.236603877050	775.283762619339	438.106524437681	396.661481943941	1130.680438853640	940.918094159070	566.636198404578	385.269431473451	658.798344887474	690.027158646515	647.939146326443	425.542551752580	627.175535889149	711.458912829866	698.962803160026	167.367597851839	585.643808651117	333.543686991037	536.429482216028	656.516004969661	745.183717148411	530.827558544946	481.953137018085	380.351605223475	613.622032034016	599.386277037062	673.623560580296	419.924279777813	1008.359094633440	595.716339650228	591.036836291741	970.331158332710	720.554722849510	608.497049524975	1389.080390563651	650.334883658044	
115	2.140000000000	166.851001016980	367.691458539022	347.460354557716	690.034282843738	42.500536260540	589.243249081987	223.168947398932	483.138338881585	363.950017698881	473.975060914084	1484.953969400053	647.855518875644	565.082764956484	91.864107820938	590.727074428370	496.811398821798	1436.604223492467	794.571671681282	476.056264456654	580.308203610726	331.212957459743	580.077003225498	1165.964246578197	1116.154131274165	522.661190248941	1473.032213129836	509.272577640500	478.409144256236	30.447228873053	638.457838978326	173.273635755049	656.702419829285	401.005544252115	391.146889584009	37.126814636372	580.258944032183	599.954217870148	492.927689103455	654.517652120511	672.947403508615	1313.059319478945	504.124389939302	531.372060980730	214.974923620111	625.454373317844	483.313985755815	341.803859901780	709.797527812405	552.745144402631	1184.076082353374	324.333692072839	589.288268068606	986.187166967664	456.855825386409	370.029256736081	510.666282960489	378.571515058275	673.935517532871	491.936470826426	415.170536906122	592.415168878895	699.111335901905	362.620659317662	664.886050912997	774.965471140573	437.917149795607	396.876011523136	1130.684451862847	941.044983447321	566.690186851092	385.241917309791	659.011881060033	689.309812169181	647.585552115758	425.253789233347	627.306040771276	711.471321304642	699.144200285916	165.945164257922	581.811945195498	333.177035469530	536.532717089151	656.550140258703	745.293895163547	530.154793345814	481.056796170089	380.026675049695	613.785181723801	599.396479549834	673.833389371432	420.121959174951	1008.407533545373	595.828418340092	591.270898307978	970.324349605512	720.586743068487	608.777336548897	1389.062508098536	650.466281244096	
116	2.150000000000	167.312789954039	363.494207710476	346.963150531451	690.021101282710	42.663569788810	589.291669833672	222.599831329146	479.451091082203	363.563002898583	474.281505331244	1484.952253380090	648.000682642742	565.052110436104	91.981774672964	590.816752861868	497.050482184256	1436.570331746602	794.640945345591	474.627313339427	578.859640579499	330.974272873974	580.274309356128	1165.962640687787	1116.303456056549	522.971882787589	1473.050546125816	509.399878079677	478.409476034772	30.431302981598	638.458612628115	171.159015366141	652.514607832443	400.669568195535	391.137981012544	37.126517438167	580.280686141772	600.156180090870	492.899706467161	654.789561443142	673.228972774829	1313.048600456317	504.244069337691	531.331519800864	214.984917178591	625.698344247636	483.285640080168	341.857311501100	709.978621742853	553.002437659385	1184.103416016772	324.438063143652	589.387846118274	986.123347460869	456.851410071240	369.193038376123	508.237413216050	378.217304390730	673.200370218442	491.729268055798	414.878195851449	591.710433727249	698.880727139020	362.611082536874	664.547422933526	774.664252707181	437.710559833074	397.097039383246	1130.680176743527	941.168835792854	566.754727308210	385.212254629331	659.230665035068	688.610139289023	647.251315950818	424.958222585860	627.453623151030	711.485562004372	699.336521181074	164.537217919928	577.607174781095	332.790536223552	536.644083076407	656.586474392009	745.399970617747	529.546354075805	480.103970480227	379.711606319200	613.968949763235	599.406615614911	674.055300158659	420.321094822710	1008.456098115479	595.932620919172	591.514109822991	970.321890768039	720.606522256262	609.060110010481	1389.039762838363	650.592086351572	
